
        <svg xmlns="http://www.w3.org/2000/svg" xmlns:xlink="http://www.w3.org/1999/xlink" version="1.1" width="3162.3083859332733" 
        height="724.2139078766331" viewBox="0 0 3162.3083859332733 724.2139078766331">
			
			<g transform="scale(8.115419296663662) translate(10, 10)">
				<defs id="SvgjsDefs3682"></defs><g id="SvgjsG3683" featureKey="symbolFeature-0" transform="matrix(1.172552887169946,0,0,1.172552887169946,-0.09849444993057288,-6.376342837495684)" fill="#58d5d3"><path xmlns="http://www.w3.org/2000/svg" d="M60.812,17.227C60.36,11.34,55.928,6.581,50.192,5.625c-0.688-0.114-1.388-0.187-2.11-0.187  c-0.729,0-1.442,0.067-2.138,0.187c-1.691,0.29-3.268,0.911-4.666,1.793c-1.365,0.861-2.561,1.961-3.51,3.26  c-0.028,0.035-0.061,0.067-0.085,0.104C37.616,10.875,0.084,64.486,0.084,64.486c0.074,0,21.532,0.002,30.384,0.002  c16.752,0.002,30.336-13.553,30.388-30.293c0-0.03,0.001-0.061,0.002-0.092v-6.768l10.296-5.044L60.812,17.227z M49.561,19.156  c-1.042,0-1.885-0.845-1.885-1.886c0-1.041,0.843-1.883,1.885-1.883c1.041,0,1.886,0.842,1.886,1.883  C51.446,18.311,50.602,19.156,49.561,19.156z"></path></g><g id="SvgjsG3684" featureKey="nameFeature-0" transform="matrix(1.1758619244996382,0,0,1.1758619244996382,99.59000030681212,4.2659312416103266)" fill="#111111"><path d="M24.9 39.28 c0.28 0.4 0.12 0.72 -0.36 0.72 l-6.14 0 c-0.32 0 -0.52 -0.08 -0.72 -0.36 l-7.08 -10.72 l-1.24 1.5 l0 8.98 c0 0.36 -0.24 0.6 -0.6 0.6 l-5.26 0 c-0.36 0 -0.6 -0.24 -0.6 -0.6 l0 -26.8 c0 -0.36 0.24 -0.6 0.6 -0.6 l5.26 0 c0.36 0 0.6 0.24 0.6 0.6 l0 9.18 l7.54 -9.46 c0.2 -0.24 0.44 -0.32 0.72 -0.32 l6.26 0 c0.52 0 0.62 0.36 0.32 0.72 l-9.44 11.24 z M54.772000000000006 39.32 c0.14 0.4 -0.04 0.68 -0.48 0.68 l-5.48 0 c-0.32 0 -0.56 -0.12 -0.68 -0.48 l-1.28 -3.88 l-10.02 0 l-1.28 3.88 c-0.1 0.36 -0.36 0.48 -0.68 0.48 l-5.48 0 c-0.44 0 -0.62 -0.28 -0.48 -0.68 l9.8 -26.84 c0.12 -0.32 0.36 -0.48 0.68 -0.48 l4.8 0 c0.32 0 0.66 0.16 0.78 0.48 z M38.652 30.18 l6.4 0 l-3.2 -9.68 z M86.484 23.88 c0.36 0 0.6 0.24 0.6 0.6 l0 2.86 c0 7.16 -4.62 13.18 -12.58 13.18 c-8.02 0 -14.66 -6.44 -14.66 -14.46 c0 -8.04 6.5 -14.38 14.52 -14.38 c3.9 0 7.48 1.6 9.92 4.14 c0.28 0.3 0.22 0.56 -0.02 0.84 l-3.24 3.5 c-0.22 0.28 -0.56 0.28 -0.84 0.04 c-1.54 -1.32 -3.48 -2.18 -5.88 -2.18 c-4.36 0 -7.78 3.48 -7.78 8.04 s3.22 8.12 7.92 8.12 c4.1 0 6.14 -2.38 6.26 -4.94 l-6.08 0 c-0.36 0 -0.6 -0.24 -0.6 -0.6 l0 -4.16 c0 -0.36 0.24 -0.6 0.6 -0.6 l11.86 0 z M116.456 12 c0.36 0 0.6 0.24 0.6 0.6 l0 16.06 c0 8.18 -4.96 11.92 -11.88 11.92 c-6.88 0 -11.88 -3.74 -11.88 -11.92 l0 -16.06 c0 -0.36 0.24 -0.6 0.6 -0.6 l5.26 0 c0.36 0 0.6 0.24 0.6 0.6 l0 16.06 c0 3.5 2.04 5.7 5.42 5.7 c3.42 0 5.4 -2.2 5.4 -5.7 l0 -16.06 c0 -0.36 0.24 -0.6 0.6 -0.6 l5.28 0 z M138.568 25.060000000000002 c3.62 0.68 5.68 3.06 5.68 6.88 c0 5.42 -2.82 8.06 -10.26 8.06 l-9.82 0 c-0.36 0 -0.6 -0.24 -0.6 -0.6 l0 -26.8 c0 -0.36 0.24 -0.6 0.6 -0.6 l10.28 0 c5.82 0 8.34 3.22 8.34 7.28 c0 2.94 -1.5 5.04 -4.22 5.78 z M136.788 20.12 c0 -1.84 -0.84 -2.44 -2.94 -2.44 l-3.82 0 l0 5.08 l3.74 0 c2.24 0 3.02 -0.7 3.02 -2.64 z M134.24800000000002 34.32 c2.54 0 3.56 -1.04 3.56 -3.1 c0 -2.32 -1.18 -3.14 -3.62 -3.14 l-4.16 0 l0 6.24 l4.22 0 z M169.8 17.68 l-6.34 0 l0 16.64 l6.34 0 c0.36 0 0.6 0.24 0.6 0.6 l0 4.48 c0 0.36 -0.24 0.6 -0.6 0.6 l-19.14 0 c-0.36 0 -0.6 -0.24 -0.6 -0.6 l0 -4.48 c0 -0.36 0.24 -0.6 0.6 -0.6 l6.34 0 l0 -16.64 l-6.34 0 c-0.36 0 -0.6 -0.24 -0.6 -0.6 l0 -4.48 c0 -0.36 0.24 -0.6 0.6 -0.6 l19.14 0 c0.36 0 0.6 0.24 0.6 0.6 l0 4.48 c0 0.36 -0.24 0.6 -0.6 0.6 z M194.392 30.060000000000002 l4.88 9.24 c0.22 0.42 -0.02 0.7 -0.48 0.7 l-5.16 0 c-0.34 0 -0.54 -0.14 -0.7 -0.46 l-4.38 -8.64 l-0.48 0 l-4 0 l0 8.5 c0 0.36 -0.24 0.6 -0.6 0.6 l-5.26 0 c-0.36 0 -0.6 -0.24 -0.6 -0.6 l0 -26.8 c0 -0.36 0.24 -0.6 0.6 -0.6 l9.86 0 c8.82 0 11.46 3.14 11.46 9.44 c0 4.44 -1.3 7.3 -5.14 8.62 z M184.072 17.68 l0 7.54 l4.46 0 c3.18 0 4.82 -0.68 4.82 -3.78 c0 -3.06 -1.64 -3.76 -4.82 -3.76 l-4.46 0 z M214.98399999999998 12 c9.56 0 14.7 6.24 14.7 14 s-5.14 14 -14.7 14 l-8.54 0 c-0.36 0 -0.6 -0.24 -0.6 -0.6 l0 -26.8 c0 -0.36 0.24 -0.6 0.6 -0.6 l8.54 0 z M214.98399999999998 34.32 c5.42 0 8.14 -3 8.14 -8.32 s-2.72 -8.32 -8.14 -8.32 l-2.68 0 l0 16.64 l2.68 0 z"></path></g>
			</g>
		</svg>
	