<svg width="3000" height="562" viewBox="0 0 3000 562" fill="none" xmlns="http://www.w3.org/2000/svg">
<path d="M577.873 112.181C573.572 56.162 531.398 10.8765 476.816 1.77944C470.269 0.694648 463.608 0 456.737 0C449.8 0 443.016 0.637554 436.393 1.77944C420.302 4.53901 405.295 10.4483 391.992 18.8412C379.003 27.0343 367.622 37.5016 358.592 49.8626C358.325 50.1956 358.011 50.5001 357.783 50.8522C357.145 51.7372 0 561.887 0 561.887C0.704166 561.887 204.893 561.906 289.127 561.906C448.535 561.925 577.797 432.938 578.292 273.645C578.292 273.359 578.301 273.064 578.311 272.769V208.367L676.285 160.369L577.873 112.181ZM470.811 130.537C460.896 130.537 452.874 122.496 452.874 112.59C452.874 102.685 460.896 94.6723 470.811 94.6723C480.717 94.6723 488.758 102.685 488.758 112.59C488.748 122.496 480.717 130.537 470.811 130.537Z" fill="#58D5D3"/>
<path d="M1045.83 409.454C1048.5 413.271 1046.97 416.324 1042.39 416.324H983.799C980.745 416.324 978.837 415.561 976.928 412.889L909.366 310.592L897.533 324.906V410.599C897.533 414.034 895.243 416.324 891.808 416.324H841.614C838.178 416.324 835.888 414.034 835.888 410.599V154.857C835.888 151.421 838.178 149.131 841.614 149.131H891.808C895.243 149.131 897.533 151.421 897.533 154.857V242.458L969.485 152.185C971.393 149.895 973.684 149.131 976.355 149.131H1036.09C1041.05 149.131 1042.01 152.566 1039.15 156.002L949.064 263.261L1045.83 409.454ZM1330.88 409.835C1332.22 413.652 1330.5 416.324 1326.3 416.324H1274.01C1270.95 416.324 1268.66 415.179 1267.52 411.744L1255.31 374.718H1159.69L1147.47 411.744C1146.52 415.179 1144.04 416.324 1140.98 416.324H1088.69C1084.49 416.324 1082.77 413.652 1084.11 409.835L1177.63 153.712C1178.77 150.658 1181.06 149.131 1184.12 149.131H1229.92C1232.98 149.131 1236.22 150.658 1237.36 153.712L1330.88 409.835ZM1177.06 322.616H1238.13L1207.59 230.243L1177.06 322.616ZM1633.5 262.497C1636.93 262.497 1639.22 264.788 1639.22 268.223V295.515C1639.22 363.84 1595.14 421.286 1519.18 421.286C1442.65 421.286 1379.28 359.832 1379.28 283.3C1379.28 206.578 1441.31 146.078 1517.84 146.078C1555.06 146.078 1589.22 161.346 1612.5 185.584C1615.18 188.447 1614.6 190.928 1612.31 193.6L1581.4 226.999C1579.3 229.671 1576.05 229.671 1573.38 227.381C1558.68 214.784 1540.17 206.578 1517.27 206.578C1475.66 206.578 1443.03 239.786 1443.03 283.3C1443.03 326.815 1473.75 360.786 1518.6 360.786C1557.73 360.786 1577.2 338.075 1578.34 313.646H1520.32C1516.89 313.646 1514.6 311.356 1514.6 307.92V268.223C1514.6 264.788 1516.89 262.497 1520.32 262.497H1633.5ZM1919.51 149.131C1922.94 149.131 1925.23 151.421 1925.23 154.857V308.111C1925.23 386.17 1877.9 421.859 1811.87 421.859C1746.22 421.859 1698.5 386.17 1698.5 308.111V154.857C1698.5 151.421 1700.79 149.131 1704.23 149.131H1754.42C1757.86 149.131 1760.15 151.421 1760.15 154.857V308.111C1760.15 341.51 1779.61 362.504 1811.87 362.504C1844.5 362.504 1863.4 341.51 1863.4 308.111V154.857C1863.4 151.421 1865.69 149.131 1869.12 149.131H1919.51ZM2130.52 273.758C2165.06 280.247 2184.72 302.958 2184.72 339.411C2184.72 391.132 2157.81 416.324 2086.81 416.324H1993.1C1989.67 416.324 1987.38 414.034 1987.38 410.599V154.857C1987.38 151.421 1989.67 149.131 1993.1 149.131H2091.2C2146.74 149.131 2170.79 179.858 2170.79 218.601C2170.79 246.657 2156.47 266.696 2130.52 273.758ZM2113.53 226.617C2113.53 209.059 2105.51 203.333 2085.47 203.333H2049.02V251.81H2084.71C2106.09 251.81 2113.53 245.13 2113.53 226.617ZM2089.29 362.122C2113.53 362.122 2123.26 352.198 2123.26 332.54C2123.26 310.401 2112 302.576 2088.72 302.576H2049.02V362.122H2089.29ZM2428.55 203.333H2368.05V362.122H2428.55C2431.99 362.122 2434.28 364.412 2434.28 367.848V410.599C2434.28 414.034 2431.99 416.324 2428.55 416.324H2245.9C2242.47 416.324 2240.18 414.034 2240.18 410.599V367.848C2240.18 364.412 2242.47 362.122 2245.9 362.122H2306.4V203.333H2245.9C2242.47 203.333 2240.18 201.043 2240.18 197.608V154.857C2240.18 151.421 2242.47 149.131 2245.9 149.131H2428.55C2431.99 149.131 2434.28 151.421 2434.28 154.857V197.608C2434.28 201.043 2431.99 203.333 2428.55 203.333ZM2663.22 321.471L2709.79 409.644C2711.89 413.652 2709.6 416.324 2705.21 416.324H2655.97C2652.73 416.324 2650.82 414.988 2649.29 411.935L2607.49 329.487H2602.91H2564.74V410.599C2564.74 414.034 2562.45 416.324 2559.02 416.324H2508.82C2505.39 416.324 2503.1 414.034 2503.1 410.599V154.857C2503.1 151.421 2505.39 149.131 2508.82 149.131H2602.91C2687.08 149.131 2712.27 179.095 2712.27 239.213C2712.27 281.583 2699.87 308.874 2663.22 321.471ZM2564.74 203.333V275.284H2607.3C2637.65 275.284 2653.3 268.796 2653.3 239.213C2653.3 210.013 2637.65 203.333 2607.3 203.333H2564.74ZM2859.72 149.131C2950.95 149.131 3000 208.677 3000 282.728C3000 356.778 2950.95 416.324 2859.72 416.324H2778.23C2774.79 416.324 2772.5 414.034 2772.5 410.599V154.857C2772.5 151.421 2774.79 149.131 2778.23 149.131H2859.72ZM2859.72 362.122C2911.44 362.122 2937.4 333.494 2937.4 282.728C2937.4 231.961 2911.44 203.333 2859.72 203.333H2834.15V362.122H2859.72Z" fill="white"/>
</svg>
